<svg width="148" height="177" viewBox="0 0 148 177" fill="none" xmlns="http://www.w3.org/2000/svg">
<g clip-path="url(#clip0_95_2)">
<path d="M138.2 23.5C146.1 34.6 149.2 48.3 146.8 61.7C145.7 68 143.2 74 139.7 79.4C144.9 89.2 146.6 100.5 144.6 111.4C142.2 124.5 134.5 136 123.2 143.1L81.9 169.4C58.4 184.4 25.8 177.4 9.39996 153.8C1.49996 142.9 -1.60004 129.1 0.799961 115.7C1.89996 109.4 4.39996 103.4 7.89996 98C2.69996 88.2 0.999961 76.9 2.99996 66C5.39996 52.9 13.1 41.3 24.4 34.3L65.7 7.89999C89.2 -7.10001 121.7 -0.100008 138.2 23.5Z" fill="#09090B"/>
<path d="M61.6 156.2C64.6 155.4 67.4 154.2 70 152.5L111.3 126.2C118.1 121.9 122.8 115 124.2 107.1C125.6 99.1 123.8 90.8 119 84.1C111.2 72.8 97.1 67.6 83.8 71C80.8 71.8 78 73 75.4 74.7L59.6 84.7C58.8 85.2 58 85.6 57.1 85.8C53.1 86.8 48.8 85.3 46.5 81.9C45.1 79.9 44.5 77.4 44.9 75C45.3 72.6 46.7 70.5 48.8 69.3L90.1 43C90.9 42.5 91.7 42.1 92.6 41.9C96.6 40.9 100.9 42.4 103.2 45.8C104.5 47.6 105.1 49.8 104.9 51.9V53.4C104.8 53.4 106.3 53.9 106.3 53.9C112.1 55.7 117.6 58.4 122.5 62L124.6 63.6L125.4 61.2C125.8 59.9 126.1 58.6 126.4 57.3C127.8 49.3 126 41 121.2 34.3C113.4 23 99.3 17.8 86 21.2C83 22 80.2 23.2 77.6 24.9L36.3 51.2C29.5 55.5 24.8 62.4 23.4 70.3C22 78.3 23.8 86.6 28.6 93.3C36.4 104.6 50.5 109.8 63.8 106.4C66.8 105.6 69.6 104.4 72.2 102.7L88 92.6C88.8 92.1 89.6 91.7 90.5 91.5C94.5 90.5 98.8 92 101.1 95.4C102.5 97.4 103.1 99.9 102.7 102.3C102.3 104.7 100.9 106.8 98.8 108.1L57.5 134.4C56.7 134.9 55.9 135.3 55 135.5C51 136.5 46.7 135 44.4 131.6C43.1 129.8 42.5 127.6 42.7 125.5V124C42.8 124 41.3 123.5 41.3 123.5C35.5 121.7 30 119 25.1 115.4L23 113.8L22.2 116.2C21.8 117.5 21.5 118.8 21.2 120.1C19.8 128.1 21.6 136.4 26.4 143.1C34.2 154.4 48.3 159.6 61.6 156.2Z" fill="white"/>
</g>
<defs>
<clipPath id="clip0_95_2">
<rect width="148" height="177" fill="white"/>
</clipPath>
</defs>
</svg>
